# xmcd
#
# Track frame offsets:
#	150
#	24412
#	42459
#	58131
#	73004
#	91732
#	107874
#	129813
#	142717
#	158470
#	170380
#	186160
#	199780
#	211526
#	223284
#	242875
#	263679
#	282108
#	298528
#	310672
#
# Disc length: 4330 seconds
#
# Revision: 1
# Processed by: cddbd v1.5.2PL0 Copyright (c) Steve Scherf et al.
# Submitted via: audiograbber 1.83.01
#
DISCID=1910e814
DTITLE=NCM - NCM 064
DYEAR=2009
DGENRE=Gospel
TTITLE0=Monday On Freedom Street  - John Heavens and Jahaziel
TTITLE1=The Gift Of Life - Phil Mithell Band With Tracee Davidson
TTITLE2=I Need To Dream  - Lou Lollio
TTITLE3=Cold Wind  - Chris Mercer
TTITLE4=We Can All Be Free  - Peter Aston
TTITLE5=Ten Thousand, Thousand  - Matt Mcchelery and Band
TTITLE6=Holy One  - Viv Neville
TTITLE7=Everyday Miracles  - Donny Richmond and The Jordanaires
TTITLE8=Perfect Love  - Gerry and Heather Williams
TTITLE9=The Old Man And The Squeak  - Jim Kelly
TTITLE10=Free To Be Me  - Francesca Battistlli
TTITLE11=Today Is My Birthday  - Donjames Leblanc
TTITLE12=Why  - Rachel Martinez
TTITLE13=All Pryed Up  - Vince Gill and The Isaacs
TTITLE14=My Heart Speaks  - Yazz
TTITLE15=Just A Closer Walk With Thee - Randt Travis and John Anderson
TTITLE16=Jesus Loves Me  - Dionne Warwick
TTITLE17=Spirit Fill Us Anew  - Wes Davis
TTITLE18=It Is Better To Trust In The Lord  - Clint Miller 
TTITLE19=God In Me  - Mary Mary and Kierra Kikki Sheard
EXTD=
EXTT0=
EXTT1=
EXTT2=
EXTT3=
EXTT4=
EXTT5=
EXTT6=
EXTT7=
EXTT8=
EXTT9=
EXTT10=
EXTT11=
EXTT12=
EXTT13=
EXTT14=
EXTT15=
EXTT16=
EXTT17=
EXTT18=
EXTT19=
PLAYORDER=
